<svg xmlns="http://www.w3.org/2000/svg" viewBox="0 0 900 720" role="img" aria-labelledby="title desc">
  <title id="title">Climoraone premium handcrafted decor collection</title>
  <desc id="desc">A premium artisan display with a traditional wooden doll, elephant, carved vase, lantern, bowl, fingerprint motif and green artisan arch.</desc>
  <defs>
    <linearGradient id="cream" x1="0" y1="0" x2="1" y2="1"><stop offset="0" stop-color="#fbf7ee"/><stop offset="1" stop-color="#eee1ca"/></linearGradient>
    <linearGradient id="wood" x1="0" y1="0" x2="0" y2="1"><stop offset="0" stop-color="#d39a4f"/><stop offset=".45" stop-color="#9c5c28"/><stop offset="1" stop-color="#663617"/></linearGradient>
    <linearGradient id="red" x1="0" y1="0" x2="1" y2="1"><stop offset="0" stop-color="#d44b35"/><stop offset="1" stop-color="#8c201b"/></linearGradient>
    <linearGradient id="green" x1="0" y1="0" x2="1" y2="1"><stop offset="0" stop-color="#2e663f"/><stop offset="1" stop-color="#153c28"/></linearGradient>
    <linearGradient id="gold" x1="0" y1="0" x2="1" y2="1"><stop offset="0" stop-color="#e3bd68"/><stop offset="1" stop-color="#a66b18"/></linearGradient>
    <filter id="shadow" x="-30%" y="-30%" width="160%" height="160%"><feDropShadow dx="0" dy="14" stdDeviation="13" flood-color="#173f2a" flood-opacity=".18"/></filter>
    <pattern id="grain" width="18" height="18" patternUnits="userSpaceOnUse"><path d="M0 16c5-8 11-11 18-12" fill="none" stroke="#f1d391" stroke-opacity=".16" stroke-width="2"/></pattern>
  </defs>

  <rect width="900" height="720" rx="42" fill="url(#cream)"/>
  <path d="M60 180C225 38 665 38 840 182" fill="none" stroke="#173f2a" stroke-width="3" stroke-linecap="round"/>
  <path d="M60 180v20M840 182v20" stroke="#173f2a" stroke-width="3" stroke-linecap="round"/>
  <path d="M438 51l13 16 13-16 13 16 13-16" fill="none" stroke="#b6873d" stroke-width="3"/>

  <g opacity=".24" fill="none" stroke="#c69b52" stroke-width="3">
    <path d="M569 116c-72 22-116 94-95 161 22 71 102 103 169 69 61-31 83-107 51-166-28-52-91-72-144-50"/>
    <path d="M568 142c-53 18-85 70-68 119 18 52 76 75 125 49 45-23 61-79 37-123-21-38-67-53-106-37"/>
    <path d="M567 167c-34 12-54 45-43 76 11 33 48 48 79 31 28-15 38-50 23-78-13-24-42-33-67-23"/>
  </g>

  <g filter="url(#shadow)">
    <!-- carved elephant -->
    <g transform="translate(40 430)">
      <ellipse cx="142" cy="214" rx="128" ry="23" fill="#2b211a" opacity=".14"/>
      <path d="M66 116c0-42 34-76 77-76h52c45 0 82 37 82 82v62H66z" fill="url(#wood)"/>
      <path d="M89 105c-33-44-74-39-91-5 36 10 64 32 85 65z" fill="#b97831"/>
      <path d="M229 104c34-42 73-35 91-1-35 10-62 31-83 63z" fill="#b97831"/>
      <path d="M106 82c17-28 45-43 75-38 35 5 62 33 62 69 0 34-27 61-61 61-20 0-39-10-51-27-15-22-15-44-2-65z" fill="#c5873b"/>
      <path d="M159 128c27 18 37 51 25 86" fill="none" stroke="#8e4c20" stroke-width="12" stroke-linecap="round"/>
      <circle cx="153" cy="111" r="5" fill="#1c241f"/>
      <path d="M100 76c31-21 91-24 129-2" fill="none" stroke="#d8aa54" stroke-width="9"/>
      <path d="M87 131h176v52H87z" rx="20" fill="#9f2d24"/>
      <path d="M99 145h152" stroke="#e4bd68" stroke-width="6" stroke-dasharray="11 8"/>
      <path d="M85 176v35M128 179v39M222 178v38M262 175v35" stroke="#713b18" stroke-width="15" stroke-linecap="round"/>
      <path d="M123 99c20 14 46 15 68 1M121 118c21 14 48 14 71 0" fill="none" stroke="#f0cf86" stroke-opacity=".55" stroke-width="4"/>
    </g>

    <!-- premium carved vase -->
    <g transform="translate(300 250)">
      <ellipse cx="114" cy="395" rx="107" ry="24" fill="#2b211a" opacity=".13"/>
      <path d="M71 103c2-35 25-61 43-61s41 26 43 61l-12 30c31 41 42 86 42 134 0 72-29 118-73 118S41 339 41 267c0-48 11-93 42-134z" fill="url(#wood)"/>
      <path d="M77 100h74M68 145h92M57 197h114M51 254h126M55 315h117" fill="none" stroke="#d3a34f" stroke-width="6" opacity=".8"/>
      <path d="M83 166c31 30 61 30 92 0M67 221c34 32 68 32 102 0M63 282c34 32 68 32 102 0" fill="none" stroke="#efcf8b" stroke-width="4" opacity=".65"/>
      <path d="M114 61c-5-32 4-58 24-80 13 34 11 63-7 87z" fill="#577535"/>
      <path d="M116 55c15-35 39-54 72-57-12 35-31 60-64 77z" fill="#496b31"/>
      <path d="M109 57C90 17 62-2 26 3c18 34 43 57 78 72z" fill="#64803b"/>
      <path d="M112 58C91 3 94-33 122-61c10 38 8 78-10 119z" fill="#738c47"/>
      <rect x="45" y="105" width="138" height="280" fill="url(#grain)" opacity=".7"/>
    </g>

    <!-- traditional doll -->
    <g transform="translate(475 242)">
      <ellipse cx="124" cy="418" rx="130" ry="27" fill="#2b211a" opacity=".15"/>
      <path d="M69 178c0-41 25-75 55-75s55 34 55 75l36 45-8 190H41l-8-190z" fill="url(#red)"/>
      <path d="M54 218c38 25 103 25 141 0M48 276c47 27 117 27 164 0M44 341c54 27 128 27 180 0" fill="none" stroke="#e1b257" stroke-width="7"/>
      <path d="M73 190c18 57 31 112 39 218M176 190c-18 57-31 112-39 218" stroke="#e5bc69" stroke-width="7"/>
      <ellipse cx="124" cy="119" rx="62" ry="66" fill="#c68547"/>
      <path d="M68 110c4-52 27-84 57-84 34 0 56 34 57 84-30-22-82-24-114 0z" fill="#201917"/>
      <path d="M82 93c16-16 33-23 48-23 18 0 35 7 50 23" fill="none" stroke="#d8ad56" stroke-width="8"/>
      <circle cx="101" cy="119" r="8" fill="#fff"/><circle cx="148" cy="119" r="8" fill="#fff"/>
      <circle cx="101" cy="119" r="3.5" fill="#1c241f"/><circle cx="148" cy="119" r="3.5" fill="#1c241f"/>
      <path d="M111 148c10 8 21 8 31 0" fill="none" stroke="#8f2f28" stroke-width="5" stroke-linecap="round"/>
      <circle cx="124" cy="88" r="7" fill="#b42e26"/>
      <path d="M105 29c7-22 30-35 43-7-10 10-23 16-36 17z" fill="url(#gold)"/>
      <path d="M73 188c17 27 36 43 53 43s38-16 53-43" fill="none" stroke="#e3ba66" stroke-width="9"/>
      <path d="M47 215c-33 13-48 40-54 78 42-4 71-23 86-55zM201 215c33 13 48 40 54 78-42-4-71-23-86-55z" fill="#b87634"/>
      <path d="M94 232c18 14 42 14 60 0" fill="none" stroke="#f0d38f" stroke-width="5"/>
    </g>

    <!-- lantern -->
    <g transform="translate(685 420)">
      <ellipse cx="86" cy="228" rx="84" ry="19" fill="#2b211a" opacity=".13"/>
      <path d="M26 68h120l-12 144H38z" fill="url(#wood)"/>
      <path d="M39 89h94M35 126h103M32 165h109" stroke="#c99447" stroke-width="5" opacity=".75"/>
      <path d="M45 69c8-27 22-42 41-44 19 2 34 17 41 44z" fill="#a76b2e"/>
      <path d="M86 21c-9-20 0-32 0-32s10 13 0 32z" fill="#7c471e"/>
      <path d="M57 102l22 21-22 22-21-22zM115 102l22 21-22 22-21-22zM57 157l22 21-22 22-21-22zM115 157l22 21-22 22-21-22z" fill="#f3dfaf" opacity=".92"/>
    </g>

    <!-- carved bowl -->
    <g transform="translate(610 550)">
      <ellipse cx="113" cy="125" rx="109" ry="20" fill="#2b211a" opacity=".13"/>
      <path d="M17 34h192c-5 72-38 103-96 103S23 106 17 34z" fill="url(#wood)"/>
      <path d="M31 52h164M41 78h143M58 104h110" stroke="#d2a14e" stroke-width="5" opacity=".72"/>
      <path d="M52 58l19 17-19 18-18-18zM111 58l19 17-19 18-18-18zM169 58l19 17-19 18-18-18z" fill="#f0d8a5" opacity=".85"/>
    </g>

    <!-- small wooden accent -->
    <g transform="translate(790 535)">
      <ellipse cx="55" cy="132" rx="57" ry="15" fill="#2b211a" opacity=".12"/>
      <ellipse cx="55" cy="74" rx="44" ry="39" fill="#a66a31"/>
      <path d="M17 75h76v48H17z" fill="#7b451f"/>
      <path d="M18 91h74" stroke="#d2a14d" stroke-width="5"/>
      <path d="M55 37c-8-20 1-33 1-33s10 14-1 33z" fill="#8a4f21"/>
      <circle cx="55" cy="66" r="18" fill="#4f7238"/>
      <circle cx="55" cy="48" r="10" fill="#b36e2b"/>
    </g>
  </g>

  <g opacity=".24" fill="none" stroke="#bd8b38" stroke-width="2.5">
    <path d="M818 315c37-66 69-83 99-98-17 42-44 78-99 98z"/>
    <path d="M827 327c46-44 87-53 121-57-29 27-65 48-121 57z"/>
    <path d="M84 310c-39-37-72-47-102-49 24 22 54 39 102 49z"/>
    <path d="M786 220l16 16-16 16-16-16zM827 257l10 10-10 10-10-10z"/>
  </g>
</svg>