<svg xmlns="http://www.w3.org/2000/svg" viewBox="0 0 900 720" role="img" aria-labelledby="title desc">
  <title id="title">Premium handcrafted Climoraone decor collection</title>
  <desc id="desc">A premium artisan display with a wooden elephant, decorative vase, traditional doll, lantern, bowl and wooden accent pieces.</desc>
  <defs>
    <linearGradient id="bg" x1="0" y1="0" x2="1" y2="1">
      <stop offset="0" stop-color="#fbf7ee"/>
      <stop offset="1" stop-color="#efe2cc"/>
    </linearGradient>
    <linearGradient id="wood" x1="0" y1="0" x2="0" y2="1">
      <stop offset="0" stop-color="#c58a3b"/>
      <stop offset="1" stop-color="#6f3b1b"/>
    </linearGradient>
    <linearGradient id="green" x1="0" y1="0" x2="1" y2="1">
      <stop offset="0" stop-color="#315f3f"/>
      <stop offset="1" stop-color="#173f2a"/>
    </linearGradient>
    <linearGradient id="red" x1="0" y1="0" x2="0" y2="1">
      <stop offset="0" stop-color="#c34c35"/>
      <stop offset="1" stop-color="#8d281f"/>
    </linearGradient>
    <linearGradient id="gold" x1="0" y1="0" x2="1" y2="1">
      <stop offset="0" stop-color="#e0b15c"/>
      <stop offset="1" stop-color="#a96f1f"/>
    </linearGradient>
    <filter id="shadow" x="-30%" y="-30%" width="160%" height="160%">
      <feDropShadow dx="0" dy="14" stdDeviation="13" flood-color="#253b2d" flood-opacity=".18"/>
    </filter>
  </defs>

  <rect width="900" height="720" rx="36" fill="url(#bg)"/>
  <path d="M70 220C220 40 680 35 830 218" fill="none" stroke="#173f2a" stroke-width="4" stroke-linecap="round"/>
  <path d="M70 220v20M830 218v20" stroke="#173f2a" stroke-width="4" stroke-linecap="round"/>
  <path d="M430 64l16 16 16-16 16 16 16-16" fill="none" stroke="#b6873d" stroke-width="4" stroke-linecap="round"/>

  <g opacity=".22" fill="none" stroke="#b6873d" stroke-width="3">
    <path d="M560 118c-72 25-112 96-92 163 21 69 95 102 163 70 59-28 83-101 53-158-27-49-85-70-136-51"/>
    <path d="M560 145c-51 20-80 69-65 115 16 49 68 72 116 49 42-20 58-72 36-113-18-35-57-50-92-37"/>
    <path d="M561 172c-31 13-49 44-39 73 10 31 43 45 73 31 27-13 37-45 23-70-12-23-36-32-58-24"/>
  </g>

  <g filter="url(#shadow)">
    <!-- elephant -->
    <g transform="translate(70 400)">
      <ellipse cx="140" cy="190" rx="128" ry="28" fill="#203126" opacity=".14"/>
      <path d="M58 86c0-49 38-88 86-88 46 0 84 37 84 84v94H58z" fill="url(#wood)"/>
      <path d="M70 90c-40-38-74-19-86 12 31 12 59 35 78 64z" fill="#b97934"/>
      <path d="M216 90c40-38 74-19 86 12-31 12-59 35-78 64z" fill="#b97934"/>
      <path d="M144 75c36 0 62 24 62 54 0 28-23 50-56 51-23 0-45-14-52-35-8-25 11-55 46-70z" fill="#b16f2d"/>
      <path d="M148 126c18 17 27 42 20 76" fill="none" stroke="#7b441f" stroke-width="12" stroke-linecap="round"/>
      <path d="M92 62c29-17 77-18 105 1" fill="none" stroke="#d6a449" stroke-width="9"/>
      <path d="M48 157h192v39H48z" fill="#a52e28"/>
      <path d="M62 168h164" stroke="#e1b35d" stroke-width="7" stroke-dasharray="14 10"/>
      <circle cx="126" cy="112" r="5" fill="#1b1b18"/>
      <circle cx="173" cy="112" r="5" fill="#1b1b18"/>
    </g>

    <!-- vase -->
    <g transform="translate(310 240)">
      <ellipse cx="110" cy="345" rx="105" ry="24" fill="#203126" opacity=".13"/>
      <path d="M56 100c0-42 25-74 54-74 30 0 55 32 55 74v225H56z" fill="url(#wood)"/>
      <path d="M72 120c26 23 52 23 77 0M73 170c26 23 51 23 76 0M74 220c24 22 49 22 73 0" fill="none" stroke="#d7aa56" stroke-width="7" opacity=".75"/>
      <path d="M82 52c10-18 44-18 55 0" fill="none" stroke="#244f35" stroke-width="8"/>
      <g fill="#526f35">
        <path d="M100 20c-24-46-56-61-82-42 21 15 40 31 57 55z"/>
        <path d="M116 17c20-49 52-64 79-47-19 17-35 36-49 61z"/>
        <path d="M99 8c-6-42 8-72 34-83 8 25 8 51-2 79z"/>
        <path d="M84 30c-38-15-63-8-78 15 27 5 50 15 71 33z"/>
      </g>
    </g>

    <!-- doll -->
    <g transform="translate(445 210)">
      <ellipse cx="125" cy="390" rx="135" ry="30" fill="#203126" opacity=".14"/>
      <ellipse cx="125" cy="98" rx="67" ry="61" fill="#bd7b36"/>
      <path d="M72 82c18-54 91-66 118-5-31-15-78-14-118 5z" fill="#1f1a18"/>
      <circle cx="102" cy="100" r="7" fill="#fff"/><circle cx="150" cy="100" r="7" fill="#fff"/>
      <circle cx="102" cy="100" r="3" fill="#222"/><circle cx="150" cy="100" r="3" fill="#222"/>
      <path d="M115 126c9 7 20 7 29 0" fill="none" stroke="#7f2d24" stroke-width="4" stroke-linecap="round"/>
      <circle cx="126" cy="74" r="6" fill="#b42d26"/>
      <path d="M79 48c12-29 77-34 94 1" fill="none" stroke="#d6a449" stroke-width="9"/>
      <path d="M74 154c29-20 78-23 105 0l22 190H50z" fill="url(#red)"/>
      <path d="M83 157c11 31 28 58 43 76 17-18 34-45 43-76" fill="none" stroke="#dfb25e" stroke-width="8"/>
      <path d="M65 159c-31 10-47 30-57 60 38 5 67-13 84-40z" fill="#b67935"/>
      <path d="M186 159c31 10 47 30 57 60-38 5-67-13-84-40z" fill="#b67935"/>
      <path d="M58 286c39 24 92 24 132 0M55 318c43 23 97 23 140 0" stroke="#e0b25e" stroke-width="7" fill="none"/>
    </g>

    <!-- lantern -->
    <g transform="translate(650 360)">
      <ellipse cx="92" cy="227" rx="93" ry="22" fill="#203126" opacity=".13"/>
      <path d="M30 72h124l-13 136H43z" fill="#885625"/>
      <path d="M47 92h90M44 127h97M41 162h103" stroke="#c99647" stroke-width="5" opacity=".75"/>
      <path d="M46 66c9-25 25-39 46-43 22 4 38 18 47 43z" fill="#a76d31"/>
      <path d="M92 19c-10-20 0-33 0-33s10 13 0 33z" fill="#78461f"/>
      <path d="M67 110l17 17-17 18-17-18zM117 110l17 17-17 18-17-18z" fill="#f2dfb7" opacity=".92"/>
    </g>

    <!-- bowl -->
    <g transform="translate(565 485)">
      <ellipse cx="85" cy="120" rx="87" ry="18" fill="#203126" opacity=".12"/>
      <path d="M10 30h150c-5 63-33 92-75 92S15 93 10 30z" fill="#8a5223"/>
      <path d="M21 42h128M29 71h112" stroke="#c89747" stroke-width="5" opacity=".75"/>
      <path d="M44 51l16 16-16 17-16-17zM85 51l16 16-16 17-16-17zM126 51l16 16-16 17-16-17z" fill="#f0ddb2" opacity=".9"/>
    </g>

    <!-- wooden accent -->
    <g transform="translate(765 455)">
      <ellipse cx="55" cy="142" rx="60" ry="16" fill="#203126" opacity=".12"/>
      <ellipse cx="55" cy="68" rx="46" ry="42" fill="#a7692f"/>
      <ellipse cx="55" cy="50" rx="34" ry="29" fill="#c18a3f"/>
      <path d="M18 68h74v62H18z" fill="#77461f"/>
      <path d="M17 91h76" stroke="#d0a04c" stroke-width="5"/>
      <path d="M55 18c-9-19 1-31 1-31s10 13-1 31z" fill="#854d20"/>
    </g>
  </g>

  <g opacity=".25" fill="none" stroke="#b6873d" stroke-width="3">
    <path d="M790 290c42-78 80-98 113-115-20 49-50 91-113 115z"/>
    <path d="M803 304c51-53 96-64 135-68-33 31-74 56-135 68z"/>
    <path d="M175 285c-43-42-81-54-114-58 27 26 62 46 114 58z"/>
  </g>
</svg>